# xmcd
#
# Track frame offsets:
#	150
#	21474
#	45574
#	60938
#	79013
#	102079
#	120345
#	142120
#	162423
#	178488
#	194901
#	217240
#
# Disc length: 3179 seconds
#
# Revision: 1
# Processed by: cddbd v1.5.1PL0 Copyright (c) Steve Scherf et al.
# Submitted via: audiograbber 1.82.02
#
DISCID=b30c690c
DTITLE=Berget-trioen - Stol på Gud
DYEAR=2003
DGENRE=Country
TTITLE0=Bare stol på Gud
TTITLE1=Det fins en kilde
TTITLE2=Himmel-losen
TTITLE3=Den bortkomne sønn
TTITLE4=Være lys, være salt
TTITLE5=Å bror og syster
TTITLE6=Fristet og prøvet
TTITLE7=Jesus har aldri sagt nei
TTITLE8=Tyv om natten
TTITLE9=Opp i skyer
TTITLE10=Bønn
TTITLE11=Amazing Grace, O nåde stor
EXTD=
EXTT0=
EXTT1=
EXTT2=
EXTT3=
EXTT4=
EXTT5=
EXTT6=
EXTT7=
EXTT8=
EXTT9=
EXTT10=
EXTT11=
PLAYORDER=
